<svg id="Capa_1" data-name="Capa 1" xmlns="http://www.w3.org/2000/svg" viewBox="0 0 459.5 167"><defs><style>.cls-1,.cls-3{fill:#ffe0a9;}.cls-1,.cls-2{stroke:#000;stroke-miterlimit:10;}.cls-2{fill:#fbd6b6;}.cls-4{font-size:72px;fill:#534741;font-family:KristenITC-Regular, Kristen ITC;}</style></defs><path class="cls-1" d="M61.53,221.44S16.91,227.5,25.23,189l31.12-35s22,22,23.33,22S62,220.52,62,220.52" transform="translate(-23.7 -55.53)"/><path class="cls-2" d="M58.7,76l-3,88L66.54,185.6,61.7,222,422,221.92c32.81,1.45,58.89-23.06,59.74-55.89,0-1.42.09-2.75,0-4l-52,21-348-1Z" transform="translate(-23.7 -55.53)"/><path class="cls-2" d="M53.77,76s-20.34,9.9-27.57,27.5L25.7,188l23.87-17.17Z" transform="translate(-23.7 -55.53)"/><rect class="cls-3" x="23" y="0.5" width="436" height="137" rx="35.68"/><path d="M447,56.53A35.22,35.22,0,0,1,482.2,91.71v65.63A35.23,35.23,0,0,1,447,192.53H82.38A35.23,35.23,0,0,1,47.2,157.34V91.71A35.22,35.22,0,0,1,82.38,56.53H447m0-1H82.38A36.18,36.18,0,0,0,46.2,91.71v65.63a36.18,36.18,0,0,0,36.18,36.19H447a36.19,36.19,0,0,0,36.19-36.19V91.71A36.18,36.18,0,0,0,447,55.53Z" transform="translate(-23.7 -55.53)"/><text class="cls-4" transform="translate(101.58 83.08)">Espacio</text></svg>